<svg width="532" height="181" viewBox="0 0 532 181" fill="none" xmlns="http://www.w3.org/2000/svg">
<rect x="147" y="5" width="348" height="117" fill="#21E410"/>
<path d="M78 5H149V122H78V5Z" fill="black"/>
<path d="M92.7163 90V38.88H115.756C118.156 38.88 120.364 39.384 122.38 40.392C124.444 41.352 126.22 42.672 127.708 44.352C129.196 45.984 130.348 47.832 131.164 49.896C132.028 51.96 132.46 54.048 132.46 56.16C132.46 59.328 131.692 62.256 130.156 64.944C128.668 67.584 126.652 69.6 124.108 70.992L135.34 90H122.308L112.516 73.512H104.524V90H92.7163ZM104.524 63.216H115.324C116.716 63.216 117.916 62.568 118.924 61.272C119.932 59.928 120.436 58.224 120.436 56.16C120.436 54.096 119.86 52.44 118.708 51.192C117.556 49.896 116.308 49.248 114.964 49.248H104.524V63.216Z" fill="#21E410"/>
<path d="M198.407 85.536V90H164.063V38.88H197.759V43.344H169.103V61.776H194.087V66.024H169.103V85.536H198.407ZM248.762 39.24H253.514L260.714 57.384L267.986 39.24H272.81L263.882 61.056L273.674 84.168L292.178 38.88H297.65L275.978 90H271.514L260.786 64.728L249.986 90H245.594L223.994 38.88H229.394L247.97 84.168L257.69 61.056L248.762 39.24ZM326.442 90V38.88H331.482V90H326.442ZM370.942 48.168V90H365.902V38.88H370.078L403.63 81.504V38.952H408.67V90H403.99L370.942 48.168ZM443.119 90V38.88H460.471C465.895 38.88 470.407 40.032 474.007 42.336C477.655 44.592 480.391 47.664 482.215 51.552C484.039 55.392 484.951 59.664 484.951 64.368C484.951 69.552 483.943 74.064 481.927 77.904C479.911 81.744 477.079 84.72 473.431 86.832C469.783 88.944 465.463 90 460.471 90H443.119ZM479.911 64.368C479.911 60.288 479.143 56.664 477.607 53.496C476.119 50.328 473.911 47.856 470.983 46.08C468.103 44.256 464.599 43.344 460.471 43.344H448.159V85.536H460.471C464.695 85.536 468.247 84.6 471.127 82.728C474.007 80.856 476.191 78.336 477.679 75.168C479.167 72 479.911 68.4 479.911 64.368Z" fill="black"/>
<path d="M51.5 23V107L0 67L51.5 23Z" fill="black"/>
<path d="M134.598 155.706C134.598 156.342 134.436 156.912 134.112 157.416C133.788 157.908 133.35 158.298 132.798 158.586C132.258 158.862 131.664 159 131.016 159H124.986V146.22H131.142C131.742 146.22 132.258 146.382 132.69 146.706C133.122 147.018 133.458 147.426 133.698 147.93C133.938 148.422 134.058 148.938 134.058 149.478C134.058 150.114 133.896 150.702 133.572 151.242C133.248 151.782 132.798 152.184 132.222 152.448C132.942 152.664 133.518 153.066 133.95 153.654C134.382 154.242 134.598 154.926 134.598 155.706ZM126.246 147.318V152.034H130.638C131.058 152.034 131.43 151.926 131.754 151.71C132.09 151.482 132.348 151.194 132.528 150.846C132.72 150.486 132.816 150.096 132.816 149.676C132.816 149.244 132.726 148.848 132.546 148.488C132.366 148.128 132.12 147.846 131.808 147.642C131.496 147.426 131.142 147.318 130.746 147.318H126.246ZM133.338 155.49C133.338 155.07 133.242 154.674 133.05 154.302C132.858 153.93 132.594 153.63 132.258 153.402C131.934 153.174 131.562 153.06 131.142 153.06H126.246V157.902H131.016C131.448 157.902 131.838 157.788 132.186 157.56C132.534 157.332 132.81 157.038 133.014 156.678C133.23 156.306 133.338 155.91 133.338 155.49ZM146.07 146.22H147.132L152.442 159H151.11L149.454 155.004H143.712L142.074 159H140.724L146.07 146.22ZM149.166 154.014L146.592 147.696L143.982 154.014H149.166ZM158.354 152.52C158.354 151.752 158.486 150.99 158.75 150.234C159.026 149.478 159.422 148.794 159.938 148.182C160.454 147.558 161.09 147.066 161.846 146.706C162.602 146.334 163.46 146.148 164.42 146.148C165.548 146.148 166.52 146.412 167.336 146.94C168.152 147.456 168.752 148.122 169.136 148.938L168.146 149.55C167.87 148.986 167.522 148.542 167.102 148.218C166.682 147.882 166.232 147.642 165.752 147.498C165.284 147.354 164.816 147.282 164.348 147.282C163.58 147.282 162.902 147.438 162.314 147.75C161.726 148.05 161.228 148.458 160.82 148.974C160.424 149.49 160.124 150.06 159.92 150.684C159.716 151.308 159.614 151.944 159.614 152.592C159.614 153.3 159.734 153.978 159.974 154.626C160.214 155.262 160.55 155.832 160.982 156.336C161.414 156.84 161.918 157.242 162.494 157.542C163.082 157.83 163.718 157.974 164.402 157.974C164.882 157.974 165.374 157.89 165.878 157.722C166.382 157.554 166.85 157.296 167.282 156.948C167.714 156.6 168.068 156.15 168.344 155.598L169.388 156.138C169.112 156.774 168.698 157.314 168.146 157.758C167.606 158.202 166.994 158.538 166.31 158.766C165.638 158.994 164.978 159.108 164.33 159.108C163.454 159.108 162.65 158.922 161.918 158.55C161.186 158.166 160.55 157.662 160.01 157.038C159.482 156.402 159.074 155.694 158.786 154.914C158.498 154.122 158.354 153.324 158.354 152.52ZM176.94 159V146.238H178.2V153.654L185.238 146.22H186.624L181.404 151.836L186.894 159H185.472L180.594 152.592L178.2 155.076V159H176.94ZM212.228 147.336H207.674V159H206.414V147.336H201.86V146.22H212.228V147.336ZM224.233 159.09C223.333 159.09 222.517 158.91 221.785 158.55C221.053 158.178 220.423 157.686 219.895 157.074C219.367 156.462 218.959 155.772 218.671 155.004C218.383 154.224 218.239 153.426 218.239 152.61C218.239 151.758 218.389 150.948 218.689 150.18C218.989 149.4 219.409 148.71 219.949 148.11C220.501 147.498 221.143 147.018 221.875 146.67C222.607 146.31 223.399 146.13 224.251 146.13C225.139 146.13 225.949 146.316 226.681 146.688C227.413 147.06 228.043 147.558 228.571 148.182C229.111 148.806 229.519 149.502 229.795 150.27C230.083 151.038 230.227 151.824 230.227 152.628C230.227 153.48 230.077 154.296 229.777 155.076C229.477 155.844 229.057 156.534 228.517 157.146C227.977 157.746 227.341 158.22 226.609 158.568C225.877 158.916 225.085 159.09 224.233 159.09ZM219.499 152.61C219.499 153.306 219.613 153.972 219.841 154.608C220.069 155.244 220.393 155.814 220.813 156.318C221.233 156.822 221.731 157.224 222.307 157.524C222.895 157.812 223.537 157.956 224.233 157.956C224.965 157.956 225.619 157.806 226.195 157.506C226.783 157.194 227.281 156.78 227.689 156.264C228.109 155.748 228.427 155.178 228.643 154.554C228.859 153.918 228.967 153.27 228.967 152.61C228.967 151.914 228.853 151.248 228.625 150.612C228.397 149.976 228.067 149.406 227.635 148.902C227.215 148.398 226.717 148.002 226.141 147.714C225.565 147.426 224.929 147.282 224.233 147.282C223.513 147.282 222.859 147.432 222.271 147.732C221.695 148.032 221.197 148.44 220.777 148.956C220.369 149.46 220.051 150.03 219.823 150.666C219.607 151.302 219.499 151.95 219.499 152.61ZM256.535 147.336H251.981V159H250.721V147.336H246.167V146.22H256.535V147.336ZM273.929 146.22V159H272.687V153.024H265.109V159H263.849V146.22H265.109V151.908H272.687V146.22H273.929ZM291.125 157.884V159H282.539V146.22H290.963V147.336H283.799V151.944H290.045V153.006H283.799V157.884H291.125ZM318.507 155.706C318.507 156.342 318.345 156.912 318.021 157.416C317.697 157.908 317.259 158.298 316.707 158.586C316.167 158.862 315.573 159 314.925 159H308.895V146.22H315.051C315.651 146.22 316.167 146.382 316.599 146.706C317.031 147.018 317.367 147.426 317.607 147.93C317.847 148.422 317.967 148.938 317.967 149.478C317.967 150.114 317.805 150.702 317.481 151.242C317.157 151.782 316.707 152.184 316.131 152.448C316.851 152.664 317.427 153.066 317.859 153.654C318.291 154.242 318.507 154.926 318.507 155.706ZM310.155 147.318V152.034H314.547C314.967 152.034 315.339 151.926 315.663 151.71C315.999 151.482 316.257 151.194 316.437 150.846C316.629 150.486 316.725 150.096 316.725 149.676C316.725 149.244 316.635 148.848 316.455 148.488C316.275 148.128 316.029 147.846 315.717 147.642C315.405 147.426 315.051 147.318 314.655 147.318H310.155ZM317.247 155.49C317.247 155.07 317.151 154.674 316.959 154.302C316.767 153.93 316.503 153.63 316.167 153.402C315.843 153.174 315.471 153.06 315.051 153.06H310.155V157.902H314.925C315.357 157.902 315.747 157.788 316.095 157.56C316.443 157.332 316.719 157.038 316.923 156.678C317.139 156.306 317.247 155.91 317.247 155.49ZM334.869 157.884V159H326.283V146.22H334.707V147.336H327.543V151.944H333.789V153.006H327.543V157.884H334.869ZM347.536 159.09C346.672 159.09 345.874 158.91 345.142 158.55C344.422 158.178 343.792 157.68 343.252 157.056C342.712 156.432 342.292 155.736 341.992 154.968C341.704 154.188 341.56 153.396 341.56 152.592C341.56 151.74 341.704 150.93 341.992 150.162C342.292 149.382 342.706 148.692 343.234 148.092C343.762 147.48 344.386 147 345.106 146.652C345.826 146.304 346.612 146.13 347.464 146.13C348.724 146.13 349.75 146.388 350.542 146.904C351.334 147.42 351.934 148.092 352.342 148.92L351.37 149.568C350.962 148.776 350.416 148.194 349.732 147.822C349.048 147.45 348.286 147.264 347.446 147.264C346.738 147.264 346.096 147.414 345.52 147.714C344.956 148.014 344.47 148.416 344.062 148.92C343.666 149.424 343.36 149.994 343.144 150.63C342.928 151.266 342.82 151.926 342.82 152.61C342.82 153.33 342.94 154.014 343.18 154.662C343.42 155.298 343.756 155.868 344.188 156.372C344.632 156.864 345.142 157.254 345.718 157.542C346.306 157.818 346.942 157.956 347.626 157.956C348.358 157.956 349.054 157.782 349.714 157.434C350.386 157.086 351.028 156.546 351.64 155.814V153.69H348.796V152.718H352.702V159H351.64V157.128C350.464 158.436 349.096 159.09 347.536 159.09ZM360.691 159V146.22H361.951V159H360.691ZM371.816 148.542V159H370.556V146.22H371.6L379.988 156.876V146.238H381.248V159H380.078L371.816 148.542ZM391.12 148.542V159H389.86V146.22H390.904L399.292 156.876V146.238H400.552V159H399.382L391.12 148.542ZM409.164 159V146.22H410.424V159H409.164ZM420.289 148.542V159H419.029V146.22H420.073L428.461 156.876V146.238H429.721V159H428.551L420.289 148.542ZM443.463 159.09C442.599 159.09 441.801 158.91 441.069 158.55C440.349 158.178 439.719 157.68 439.179 157.056C438.639 156.432 438.219 155.736 437.919 154.968C437.631 154.188 437.487 153.396 437.487 152.592C437.487 151.74 437.631 150.93 437.919 150.162C438.219 149.382 438.633 148.692 439.161 148.092C439.689 147.48 440.313 147 441.033 146.652C441.753 146.304 442.539 146.13 443.391 146.13C444.651 146.13 445.677 146.388 446.469 146.904C447.261 147.42 447.861 148.092 448.269 148.92L447.297 149.568C446.889 148.776 446.343 148.194 445.659 147.822C444.975 147.45 444.213 147.264 443.373 147.264C442.665 147.264 442.023 147.414 441.447 147.714C440.883 148.014 440.397 148.416 439.989 148.92C439.593 149.424 439.287 149.994 439.071 150.63C438.855 151.266 438.747 151.926 438.747 152.61C438.747 153.33 438.867 154.014 439.107 154.662C439.347 155.298 439.683 155.868 440.115 156.372C440.559 156.864 441.069 157.254 441.645 157.542C442.233 157.818 442.869 157.956 443.553 157.956C444.285 157.956 444.981 157.782 445.641 157.434C446.313 157.086 446.955 156.546 447.567 155.814V153.69H444.723V152.718H448.629V159H447.567V157.128C446.391 158.436 445.023 159.09 443.463 159.09Z" fill="black"/>
<path d="M72 23V107L20.5 67L72 23Z" fill="#21E410"/>
</svg>
